<?xml version="1.0" encoding="UTF-8" standalone="no"?>
<!DOCTYPE svg PUBLIC "-//W3C//DTD SVG 1.1//EN" "http://www.w3.org/Graphics/SVG/1.1/DTD/svg11.dtd">
<svg width="100%" height="100%" viewBox="0 0 1565 1652" version="1.1" xmlns="http://www.w3.org/2000/svg" xmlns:xlink="http://www.w3.org/1999/xlink" xml:space="preserve" xmlns:serif="http://www.serif.com/" style="fill-rule:evenodd;clip-rule:evenodd;stroke-linejoin:round;stroke-miterlimit:2;">
    <g transform="matrix(1,0,0,1,-644,-750)">
        <g transform="matrix(1,0,0,1,-101.586,0)">
            <g transform="matrix(0,1,1,0,2101.54,1600.77)">
                <path d="M-628.582,-653.98L645.161,-653.98C648.459,-645.578 651.445,-637.119 653.98,-628.582L-628.582,-628.582L-628.582,-653.98Z" style="fill:rgb(4,4,4);fill-rule:nonzero;"/>
            </g>
            <g transform="matrix(0,1,1,0,2292.81,1600.67)">
                <path d="M-628.483,-653.88L653.88,-653.88C651.323,-645.344 648.309,-636.884 644.986,-628.483L-628.483,-628.483L-628.483,-653.88Z" style="fill:rgb(4,4,4);fill-rule:nonzero;"/>
            </g>
            <g transform="matrix(1,0,0,1,1577.85,973.294)">
                <path d="M0,1292.53L0,-1.105L-76.707,-1.105L-76.707,1288.33C-58.807,1291.79 -40.662,1293.63 -22.297,1293.63C-14.819,1293.63 -7.405,1293.11 0,1292.53" style="fill:rgb(221,222,224);fill-rule:nonzero;"/>
            </g>
            <g transform="matrix(0,1,1,0,2247.88,1595.79)">
                <path d="M-623.603,-670.03L670.03,-670.03C668.798,-654.369 666.175,-638.899 662.416,-623.603L-623.603,-623.603L-623.603,-670.03Z" style="fill:rgb(179,178,183);fill-rule:nonzero;"/>
            </g>
            <g transform="matrix(-1,0,0,1,1457.21,1047.49)">
                <path d="M-195.787,-17.737L-1.682,-17.737C0,-11.869 -2.974,-5.962 -1.682,0L-195.787,0L-195.787,-17.737Z" style="fill:rgb(4,4,4);fill-rule:nonzero;"/>
            </g>
            <g transform="matrix(1,0,0,1,1555.43,765.924)">
                <path d="M0,187.182C-51.604,187.182 -93.587,145.195 -93.587,93.587C-93.587,41.979 -51.604,0 0,0C51.607,0 93.591,41.979 93.591,93.587C93.591,145.195 51.607,187.182 0,187.182" style="fill:rgb(179,178,183);fill-rule:nonzero;"/>
            </g>
            <g transform="matrix(1,0,0,1,1555.43,968.411)">
                <path d="M0,-217.796C-60.143,-217.796 -108.898,-169.041 -108.898,-108.898C-108.898,-48.755 -60.143,0 0,0C60.143,0 108.898,-48.755 108.898,-108.898C108.898,-169.041 60.143,-217.796 0,-217.796M0,-187.178C43.164,-187.178 78.281,-152.062 78.281,-108.898C78.281,-65.734 43.164,-30.617 0,-30.617C-43.164,-30.617 -78.28,-65.734 -78.28,-108.898C-78.28,-152.062 -43.164,-187.178 0,-187.178" style="fill:white;fill-rule:nonzero;"/>
            </g>
            <g transform="matrix(0,-1,-1,0,1533.24,794.517)">
                <path d="M-58.19,-58.19C-92.007,-58.19 -119.421,-32.137 -119.421,0C-119.421,32.138 -92.007,58.19 -58.19,58.19C-24.373,58.19 3.041,32.138 3.041,0C3.041,-32.137 -24.373,-58.19 -58.19,-58.19" style="fill:rgb(220,221,223);fill-rule:nonzero;"/>
            </g>
            <g transform="matrix(1,0,0,1,1555.43,968.411)">
                <path d="M0,-217.796C-60.143,-217.796 -108.898,-169.041 -108.898,-108.898C-108.898,-48.755 -60.143,0 0,0C60.143,0 108.898,-48.755 108.898,-108.898C108.898,-169.041 60.143,-217.796 0,-217.796M0,-194.833C47.385,-194.833 85.936,-156.282 85.936,-108.898C85.936,-61.513 47.385,-22.963 0,-22.963C-47.385,-22.963 -85.935,-61.513 -85.935,-108.898C-85.935,-156.282 -47.385,-194.833 0,-194.833" style="fill:rgb(4,4,4);fill-rule:nonzero;"/>
            </g>
            <g transform="matrix(1,0,0,1,1555.95,954.122)">
                <path d="M0,-177.88C-49.12,-177.88 -88.94,-138.06 -88.94,-88.94C-88.94,-39.82 -49.12,0 0,0C49.12,0 88.939,-39.82 88.939,-88.94C88.939,-138.06 49.12,-177.88 0,-177.88M0,-170.226C44.82,-170.226 81.285,-133.761 81.285,-88.94C81.285,-44.119 44.82,-7.654 0,-7.654C-44.821,-7.654 -81.286,-44.119 -81.286,-88.94C-81.286,-133.761 -44.821,-170.226 0,-170.226" style="fill:white;fill-rule:nonzero;"/>
            </g>
            <g transform="matrix(-1,0,0,1,3094.4,-1135.08)">
                <rect x="1475.47" y="2019.24" width="143.458" height="96.596" style="fill:rgb(221,222,224);"/>
            </g>
            <g transform="matrix(1,0,0,1,0,-1135.08)">
                <rect x="1447.56" y="2019.24" width="27.91" height="96.596" style="fill:white;"/>
            </g>
            <g transform="matrix(-1,0,0,1,2876.63,-1135.08)">
                <rect x="1428.45" y="2019.24" width="19.732" height="96.596" style="fill:rgb(221,222,224);"/>
            </g>
            <g transform="matrix(1,0,0,1,0,-1135.08)">
                <rect x="1618.93" y="2019.24" width="51.917" height="96.596" style="fill:rgb(179,178,183);"/>
            </g>
            <g transform="matrix(1,0,0,1,1686.9,1000.9)">
                <path d="M0,-136.282L-259.086,-136.282C-269.558,-136.282 -283.047,-127.297 -283.047,-111.322L-283.047,-27.456C-283.047,-14.965 -271.577,0 -258.586,0L0,0C12.492,0 22.465,-13.989 22.465,-27.456L22.465,-111.322C22.465,-122.792 14.466,-136.282 0,-136.282M-1.017,-113.319C-0.746,-112.767 -0.499,-111.98 -0.499,-111.322L-0.499,-27.456C-0.499,-25.776 -1.327,-23.97 -2.058,-22.963L-257.276,-22.963C-258.485,-23.948 -259.955,-26.28 -260.084,-27.456L-260.084,-111.322C-260.084,-112.383 -259.625,-113.054 -258.717,-113.319L-1.017,-113.319" style="fill:rgb(4,4,4);fill-rule:nonzero;"/>
            </g>
            <g transform="matrix(0,-1,-1,0,1523.9,795.455)">
                <path d="M-15.598,-15.598C-24.213,-15.598 -31.196,-8.615 -31.196,-0C-31.196,8.615 -24.213,15.598 -15.598,15.598C-6.983,15.598 -0,8.615 -0,-0C-0,-8.615 -6.983,-15.598 -15.598,-15.598" style="fill:white;fill-rule:nonzero;"/>
            </g>
            <g transform="matrix(0.917234,-0.398348,-0.398348,-0.917234,875.46,2112.89)">
                <path d="M44.987,238.416L1345.06,238.416L1147.49,-216.523L-152.589,-216.523L44.987,238.416Z" style="fill:rgb(26,117,173);fill-rule:nonzero;"/>
            </g>
            <g transform="matrix(1,0,0,1,2033.6,2401.81)">
                <path d="M0,-1072.94L-1231.22,-538.23L-1231.22,0L0,-534.711L0,-1072.94ZM-38.745,-1013.87L-38.745,-560.125L-1192.47,-59.067L-1192.47,-512.816L-38.745,-1013.87Z" style="fill:white;fill-rule:nonzero;"/>
            </g>
            <g transform="matrix(1,0,0,1,2033.6,2401.81)">
                <path d="M0,-1072.94L-1231.22,-538.23L-1231.22,0L0,-534.711L0,-1072.94ZM-11.624,-1055.22L-11.624,-542.335L-1219.59,-17.721L-1219.59,-530.606L-11.624,-1055.22Z" style="fill:rgb(29,136,216);fill-rule:nonzero;"/>
            </g>
            <g transform="matrix(1,0,0,1,929.236,2109.88)">
                <path d="M0,-84.792L17.986,-45.86L20.224,-46.843L20.224,-93.72L27.539,-96.949L27.539,-50.053L29.863,-51.072L47.763,-105.878L56.541,-109.753L35.973,-52.028C45.095,-54.304 48.795,-45.563 51.636,-31.73C53.615,-22.543 54.992,-12.935 57.402,-4.244L49.742,-0.907C47.763,-7.112 46.386,-16.717 44.923,-23.614C42.255,-36.889 39.329,-44.869 30.035,-40.795L27.539,-39.701L27.539,8.765L20.224,11.952L20.224,-36.495L17.642,-35.363C8.348,-31.289 5.421,-20.763 2.667,-5.148C1.291,2.972 -0.086,13.752 -1.979,21.625L-9.639,24.961C-7.143,14.168 -5.766,3.391 -3.873,-7.301C-0.947,-23.457 2.754,-35.416 11.79,-41.418L-8.778,-80.917L0,-84.792Z" style="fill:white;fill-rule:nonzero;"/>
            </g>
            <g transform="matrix(1,0,0,1,1001.18,2086.27)">
                <path d="M0,-92.939L0,-48.287C0,-31.461 -0.172,-17.55 -0.688,-3.174L-0.517,-3.092C2.409,-15.377 6.024,-28.439 10.241,-42.871L29.002,-105.743L36.489,-109.048L36.489,-2.862L29.432,0.212L29.432,-44.987C29.432,-62.153 29.518,-74.79 30.121,-88.44L29.862,-88.484C27.023,-75.581 23.064,-61.559 19.105,-48.017L0.946,12.622L-7.057,16.109L-7.057,-89.824L0,-92.939Z" style="fill:white;fill-rule:nonzero;"/>
            </g>
            <g transform="matrix(1,0,0,1,1089.14,2081.55)">
                <path d="M0,-127.055L0,-20.57L-7.573,-17.27L-7.573,-112.183L-26.765,-103.723L-26.765,-71.541C-26.765,-48.506 -27.281,-22.567 -35.457,-8.908C-37.608,-5.447 -40.964,-1.462 -44.321,0L-45.268,-10.62C-42.944,-12.421 -40.534,-15.994 -39.157,-18.96C-34.51,-29.347 -34.08,-50.193 -34.08,-67.225L-34.08,-112.01L0,-127.055Z" style="fill:white;fill-rule:nonzero;"/>
            </g>
            <g transform="matrix(1,0,0,1,1106.7,1982.86)">
                <path d="M0,17.817C0,40.59 6.713,58.062 18.503,52.921C30.379,47.74 37.092,24.689 37.092,0.444C37.092,-20.79 31.067,-40.32 18.589,-34.818C6.196,-29.353 0,-5.587 0,17.817M45.009,-3.663C45.009,33.116 32.875,57.9 18.073,64.347C2.754,71.019 -8.003,53.891 -8.003,21.645C-8.003,-12.184 3.442,-39.369 18.933,-46.209C34.768,-53.202 45.009,-35.37 45.009,-3.663" style="fill:white;fill-rule:nonzero;"/>
            </g>
            <g transform="matrix(1,0,0,1,1177.96,2022.29)">
                <path d="M0,-129.386C0.344,-124.617 1.205,-120.075 5.25,-121.864C9.208,-123.615 10.155,-128.64 10.499,-134.034L16.265,-136.587C15.835,-125.909 12.393,-117.872 5.078,-114.641C-1.979,-111.524 -5.336,-116.55 -5.766,-126.834L0,-129.386ZM-9.467,-102.822L-9.467,-57.758C-9.467,-40.779 -9.639,-26.74 -10.155,-12.234L-9.983,-12.151C-7.057,-24.537 -3.442,-37.704 0.774,-52.251L19.536,-115.625L27.022,-118.93L27.022,-11.77L19.966,-8.696L19.966,-54.309C19.966,-71.633 20.052,-84.386 20.654,-98.159L20.396,-98.204C17.556,-85.195 13.598,-71.06 9.639,-57.408L-8.52,3.715L-16.523,7.201L-16.523,-99.706L-9.467,-102.822Z" style="fill:white;fill-rule:nonzero;"/>
            </g>
            <g transform="matrix(1,0,0,1,1243.71,1983.08)">
                <path d="M0,-96.818L0,-49.18L2.324,-50.2L22.204,-106.621L31.24,-110.61L9.295,-51.666C18.847,-53.464 22.548,-44.24 25.56,-31.041C27.711,-20.97 29.347,-11.793 31.928,-3.341L23.839,0.183C21.773,-6.255 20.138,-15.112 18.589,-22.888C15.921,-35.916 12.221,-44.021 2.41,-39.721L0,-38.665L0,10.568L-7.401,13.792L-7.401,-93.55L0,-96.818Z" style="fill:white;fill-rule:nonzero;"/>
            </g>
            <g transform="matrix(1,0,0,1,1285.88,1904.27)">
                <path d="M0,17.828C0,40.824 6.713,58.496 18.503,53.354C30.379,48.174 37.092,24.926 37.092,0.444C37.092,-20.998 31.068,-40.744 18.589,-35.241C6.196,-29.777 0,-5.805 0,17.828M45.009,-3.669C45.009,33.47 32.875,58.444 18.073,64.891C2.754,71.563 -8.003,54.221 -8.003,21.659C-8.003,-12.501 3.442,-39.903 18.933,-46.743C34.768,-53.735 45.009,-35.686 45.009,-3.669" style="fill:white;fill-rule:nonzero;"/>
            </g>
            <g transform="matrix(1,0,0,1,1389.24,1889.24)">
                <path d="M0,-6.523C-0.43,-21.43 -0.947,-39.348 -0.86,-52.874L-1.119,-52.76C-3.098,-39.205 -5.508,-24.659 -8.434,-8.445L-18.675,48.504L-24.355,50.98L-33.735,3.611C-36.489,-10.406 -38.813,-23.328 -40.448,-35.427L-40.62,-35.351C-40.792,-21.817 -41.223,-3.521 -41.739,12.888L-43.288,59.869L-50.431,62.98L-46.386,-46.747L-36.833,-50.963L-26.937,-3.059C-24.527,9.196 -22.548,20.198 -21.084,30.787L-20.826,30.674C-19.363,19.125 -17.298,6.351 -14.716,-8.419L-4.389,-65.287L5.164,-69.503L8.778,37.186L1.463,40.373L0,-6.523Z" style="fill:white;fill-rule:nonzero;"/>
            </g>
            <g transform="matrix(1,0,0,1,1451.46,1921.4)">
                <path d="M0,-126.855L0,-18.258L-7.487,-14.997L-7.487,-111.792L-34.424,-99.918L-34.424,-3.261L-41.911,0L-41.911,-108.352L0,-126.855Z" style="fill:white;fill-rule:nonzero;"/>
            </g>
            <g transform="matrix(1,0,0,1,1502.93,1901.32)">
                <path d="M0,-129.494L0,-20.598L-7.573,-17.299L-7.573,-114.361L-26.764,-105.901L-26.764,-72.989C-26.764,-49.432 -27.28,-22.91 -35.456,-9.021C-37.607,-5.504 -40.964,-1.462 -44.32,0L-45.267,-10.871C-42.943,-12.689 -40.534,-16.32 -39.157,-19.34C-34.51,-29.916 -34.079,-51.23 -34.079,-68.648L-34.079,-114.449L0,-129.494Z" style="fill:white;fill-rule:nonzero;"/>
            </g>
            <g transform="matrix(1,0,0,1,1545.96,1816.52)">
                <path d="M0,-5.716L-22.548,4.169L-22.548,43.473L2.582,32.511L2.582,44.334L-30.035,58.543L-30.035,-50.43L1.291,-64.259L1.291,-52.437L-22.548,-41.928L-22.548,-7.476L0,-17.374L0,-5.716Z" style="fill:white;fill-rule:nonzero;"/>
            </g>
            <g transform="matrix(1,0,0,1,1565.67,1842.82)">
                <path d="M0,-98.695L0,-50.225L2.323,-51.245L22.203,-108.497L31.239,-112.486L9.294,-52.682C18.847,-54.44 22.547,-45.025 25.56,-31.574C27.711,-21.311 29.346,-11.96 31.928,-3.342L23.838,0.182C21.772,-6.384 20.138,-15.408 18.589,-23.333C15.921,-36.606 12.22,-44.882 2.409,-40.582L0,-39.526L0,10.567L-7.401,13.791L-7.401,-95.427L0,-98.695Z" style="fill:white;fill-rule:nonzero;"/>
            </g>
            <g transform="matrix(1,0,0,1,1643.81,1729.69)">
                <path d="M0,86.074C-2.754,89.879 -8.262,94.882 -15.319,97.956C-31.67,105.077 -43.977,90.948 -43.977,55.058C-43.977,20.789 -31.67,-7.869 -13.684,-15.812C-6.455,-19.003 -1.894,-18.086 0.086,-17.008L-1.722,-4.653C-4.562,-6.005 -8.606,-6.174 -13.426,-4.049C-27.023,1.947 -36.06,22.34 -36.06,51.097C-36.06,77.907 -27.884,91.562 -13.77,85.406C-9.209,83.417 -4.562,79.6 -1.55,75.519L0,86.074Z" style="fill:white;fill-rule:nonzero;"/>
            </g>
            <g opacity="0.44">
                <g transform="matrix(1,0,0,1,1134.27,1558.63)">
                    <path d="M0,160.952L787.942,356.981L901.39,307.711L901.39,-176.272L821.977,-196.029L0,160.952Z" style="fill:rgb(16,57,81);fill-rule:nonzero;"/>
                </g>
            </g>
            <g transform="matrix(0,-1,-1,0,1630.06,2184.05)">
                <path d="M658.886,862.571L1241.09,862.571L862.572,-658.886L280.369,-658.886L658.886,862.571Z" style="fill:rgb(29,136,216);fill-rule:nonzero;"/>
            </g>
            <g transform="matrix(1,0,0,1,745.861,1931.34)">
                <path d="M0,-1016.05L0,-389.277L1564.7,0L1564.7,-626.77L0,-1016.05ZM43.25,-960.718L1521.45,-592.961L1521.45,-55.329L43.25,-423.086L43.25,-960.718Z" style="fill:white;fill-rule:nonzero;"/>
            </g>
            <g transform="matrix(1,0,0,1,745.861,1931.34)">
                <path d="M0,-1016.05L0,-389.277L1564.7,0L1564.7,-626.771L0,-1016.05ZM17.3,-993.917L1547.4,-613.247L1547.4,-22.131L17.3,-402.801L17.3,-993.917Z" style="fill:rgb(29,136,216);fill-rule:nonzero;"/>
            </g>
            <g transform="matrix(1,0,0,1,1012.33,1181.16)">
                <path d="M0,233.812L-27.194,227.396L-27.194,140.202L-72.582,129.208L-72.582,216.687L-99.873,210.249L-99.873,0L-72.582,6.85L-72.582,97.5L-27.194,108.597L-27.194,18.241L0,25.066L0,233.812Z" style="fill:white;fill-rule:nonzero;"/>
            </g>
            <g transform="matrix(1,0,0,1,1068.75,1312.17)">
                <path d="M0,39.443L24.001,45.239L12.291,-23.497L11.71,-23.64L0,39.443ZM29.614,78.224L-5.613,69.798L-13.547,112.92L-42,106.207L-2.032,-92.291L26.227,-85.199L66.195,131.734L37.646,124.998L29.614,78.224Z" style="fill:white;fill-rule:nonzero;"/>
            </g>
            <g transform="matrix(1,0,0,1,1217.01,1487.29)">
                <path d="M0,-229.685L0,-55.097L38.42,-45.945L38.42,-220.042L65.614,-213.218L65.614,-39.467L103.549,-30.431L103.549,-203.697L130.84,-196.847L130.84,6.85L-27.292,-30.458L-27.292,-236.535L0,-229.685Z" style="fill:white;fill-rule:nonzero;"/>
            </g>
            <g transform="matrix(1,0,0,1,1403.6,1396.16)">
                <path d="M0,26.006L-7.453,24.201L-7.453,109.375L-34.744,102.935L-34.744,-100.446L-7.453,-93.597L-7.453,-10.512L-1.839,-9.138L28.064,-84.683L61.934,-76.182L21.289,6.124L64.932,126.452L30.098,118.234L0,26.006Z" style="fill:white;fill-rule:nonzero;"/>
            </g>
            <g transform="matrix(1,0,0,1,1549.15,1457.5)">
                <path d="M0,-44.46C0,-59.068 -2.082,-70.607 -6.242,-79.086C-10.406,-87.565 -16.421,-92.788 -24.29,-94.747C-32.227,-96.722 -38.194,-94.496 -42.194,-88.071C-46.198,-81.643 -48.196,-71.045 -48.196,-56.296L-48.196,0.274C-48.196,15.214 -46.181,26.9 -42.147,35.335C-38.114,43.76 -32.129,48.917 -24.197,50.805C-16.261,52.695 -10.246,50.4 -6.146,43.934C-2.048,37.465 0,26.792 0,11.907L0,-44.46ZM27.192,18.469C27.192,42.038 22.513,59.306 13.161,70.298C3.806,81.303 -8.646,84.983 -24.197,81.318C-39.744,77.653 -52.162,68.083 -61.454,52.6C-70.746,37.092 -75.388,17.463 -75.388,-6.288L-75.388,-62.559C-75.388,-86.209 -70.763,-103.611 -61.5,-114.736C-52.246,-125.85 -39.842,-129.443 -24.29,-125.537C-8.742,-121.632 3.726,-111.818 13.11,-96.106C22.5,-80.418 27.192,-60.841 27.192,-37.372L27.192,18.469Z" style="fill:white;fill-rule:nonzero;"/>
            </g>
            <g transform="matrix(1,0,0,1,1692.38,1553.97)">
                <path d="M0,-177.067L0,21.447L-27.289,15.009L-27.289,-153.719L-58.066,-161.373L-57.775,-101.734C-57.645,-62.722 -61.374,-35.609 -68.951,-20.382C-76.532,-5.131 -87.971,0.692 -103.26,-2.915L-106.744,-3.737L-106.744,-33.978L-103.454,-33.193C-95.839,-31.379 -90.855,-35.68 -88.503,-46.103C-86.146,-56.515 -85.035,-77.286 -85.161,-108.422L-85.453,-198.514L0,-177.067Z" style="fill:white;fill-rule:nonzero;"/>
            </g>
            <g transform="matrix(1,0,0,1,1741.25,1487.96)">
                <path d="M0,1.051L0,69.1L18.58,73.526C24.709,74.986 29.498,72.81 32.953,66.993C36.399,61.181 38.127,53.447 38.127,43.783C38.127,34.574 36.399,26.275 32.953,18.891C29.498,11.503 24.709,7.065 18.58,5.573L0,1.051ZM0,-28.972L18.58,-24.408C32.708,-20.937 44.049,-12.193 52.598,1.807C61.146,15.797 65.421,32.063 65.421,50.624C65.421,69.37 61.163,83.67 52.644,93.549C44.129,103.439 32.771,106.718 18.58,103.37L-27.391,92.524L-27.391,-105.667L0,-98.793L0,-28.972Z" style="fill:white;fill-rule:nonzero;"/>
            </g>
            <g transform="matrix(1,0,0,1,1922.32,1409.55)">
                <path d="M0,220.121L-27.191,213.706L-27.191,132.219L-72.579,121.226L-72.579,202.998L-99.872,196.559L-99.872,0L-72.579,6.85L-72.579,91.587L-27.191,102.683L-27.191,18.242L0,25.066L0,220.121Z" style="fill:white;fill-rule:nonzero;"/>
            </g>
            <g transform="matrix(1,0,0,1,2016.87,1570.38)">
                <path d="M0,-42.479C0,-56.575 -2.082,-67.727 -6.242,-75.945C-10.407,-84.164 -16.421,-89.256 -24.29,-91.214C-32.227,-93.189 -38.194,-91.093 -42.194,-84.928C-46.198,-78.759 -48.196,-68.549 -48.196,-54.315L-48.196,0.279C-48.196,14.697 -46.182,25.991 -42.147,34.165C-38.114,42.329 -32.129,47.356 -24.197,49.244C-16.261,51.133 -10.246,48.969 -6.146,42.763C-2.048,36.556 0,26.275 0,11.911L0,-42.479ZM27.192,18.473C27.192,41.214 22.513,57.836 13.161,68.365C3.806,78.906 -8.646,82.354 -24.197,78.688C-39.744,75.023 -52.162,65.686 -61.454,50.666C-70.746,35.623 -75.388,16.639 -75.388,-6.284L-75.388,-60.592C-75.388,-83.418 -70.763,-100.173 -61.5,-110.829C-52.246,-121.474 -39.842,-124.833 -24.29,-120.927C-8.742,-117.022 3.726,-107.443 13.11,-92.2C22.5,-76.979 27.192,-58.049 27.192,-35.405L27.192,18.473Z" style="fill:white;fill-rule:nonzero;"/>
            </g>
            <g transform="matrix(1,0,0,1,2142.29,1670.72)">
                <path d="M0,-238.711L0.194,-237.869C0.452,-226.653 -2.226,-218.225 -7.839,-212.578C-13.452,-206.926 -20.937,-205.281 -30.292,-207.643C-39.842,-210.054 -47.39,-215.482 -52.935,-223.938C-58.485,-232.399 -61.1,-242.237 -60.774,-253.443L-60.584,-254.191L-40.741,-249.121C-40.741,-244.277 -39.905,-240.144 -38.229,-236.724C-36.552,-233.3 -33.903,-231.134 -30.292,-230.216C-26.808,-229.33 -24.244,-230.196 -22.597,-232.808C-20.953,-235.426 -20.13,-239.104 -20.13,-243.855L0,-238.711ZM-7.742,-182.843L19.645,-175.97L19.645,15.48L-7.742,9.019L-7.742,-111.818L-8.325,-112.088L-53.032,-1.667L-80.229,-8.083L-80.229,-201.036L-53.032,-194.21L-53.032,-72.677L-52.453,-72.409L-7.742,-182.843Z" style="fill:white;fill-rule:nonzero;"/>
            </g>
        </g>
    </g>
</svg>
